<?xml version="1.0" encoding="utf-8"?>
<!-- Generator: Adobe Illustrator 21.0.0, SVG Export Plug-In . SVG Version: 6.00 Build 0)  -->
<svg version="1.1" id="Livello_1" xmlns="http://www.w3.org/2000/svg" xmlns:xlink="http://www.w3.org/1999/xlink" x="0px" y="0px"
	 viewBox="0 0 772 250" style="enable-background:new 0 0 772 250;" xml:space="preserve">
<style type="text/css">
	.st0{fill:#EEEEF1;}
	.st1{fill:#D1E1E5;}
	.st2{fill:#3EBCA6;}
	.st3{fill:#006B81;}
	.st4{fill:#FFFFFF;}
	.st5{fill:none;}
	.st6{font-family:'KeepCalm-Medium';}
	.st7{font-size:10px;}
	.st8{font-size:35px;}
</style>
<rect class="st0" width="772" height="250"/>
<g>
	<path class="st1" d="M548.5,121l-1.3,0.5l-0.6-0.3l-1.4,1.9c0,0,0.4,2.1,0.8,2.1c0.4,0,1.8,0,1.8,0l1.4-1l0.8-1.9
		c0,0,0.4-0.9,0-1.1C549.5,121,548.5,121,548.5,121z"/>
	<path class="st1" d="M613.7,23C613.7,23,613.7,23.1,613.7,23C613.8,23,613.8,23,613.7,23z"/>
	<path class="st1" d="M566,154.4c-0.8,1.4-1.6,3-2,3.1c-0.4,0.1-3.1,1.9-3.9,2.8c-0.8,0.9-2.3,3.2-2.8,2.8c-0.5-0.4-2.7,1.6-2.7,1.6
		l-1.1,2.8l-3.5-0.8l0.2,1.1c0,0-1.1,1.8-0.9,2.1c0.3,0.4,0,1.8,0.4,2.5c0.4,0.8,0.8,1.3,1.4,1.8c0.6,0.5,0.8,2.1,0.4,3.4
		c-0.4,1.3,0.5,1.5,1,2c0.5,0.5,1.6,0.6,2.1,0.2c0.5-0.4,1.5-0.5,2.1-0.1c0.6,0.4,2.3,0.4,2.8,1c0.5,0.6,2.5,0.2,2.9,0.6
		c0.4,0.4,2.4-0.4,2.9-0.9c0.5-0.5,0-1.5,0-3.1c0-1.6,0.3-1.5,1.1-2.1c0.9-0.6,1.5-1.1,1.6-2c0.1-0.9,0.4-2.4,0.4-3.2s2-0.6,2.4-0.9
		c0.4-0.3-0.3-0.8-0.3-1.1c0-0.4-1.6-2.1-2-2.8c-0.4-0.6,0.6-3.8,1.3-4.3c0.6-0.5,1.8-2.5,1.8-3h0c0-0.5-1.4-1.6-1.8-2.1
		c-0.4-0.5-2.6-2.5-3.1-2.9C566.3,152.6,566.8,153,566,154.4z"/>
	<path class="st1" d="M547.6,188.1c0-0.4-0.9-1.4-1.3-1.5c-0.4-0.1-0.2-0.5-0.9-0.8c-0.6-0.2-1.9,0.1-1.9,0.1l-1.3,0.1l-1.5,1.8
		c0,0,3.5,0.4,3.9,0.9c0.4,0.5,2.3,2,2.3,2s2.5,0.6,3.1,0.8c0.6,0.1,3.5,0.3,3.9,0.4h0c0.4,0.1,1.3,0.1,3.1,0.6
		c1.9,0.5,3.7,0.6,3.9,1.1c0.3,0.5,1.9,0,2.6-0.1c0.8-0.1,2.5-1.8,3.7-0.5c1.1,1.3,3.4,0.4,3.8,0.6c0.4,0.2,1.5-0.6,2.9-0.5
		c1.4,0.1,1.5,0.5,1.9,0.5s1.6,0.4,2.3,0.2c0.6-0.1,1.4-0.9,2.5-0.7c1.1,0.1,4.2-0.9,4.2-0.9s0,0.1-0.7,0.6
		c-0.8,0.5-3.3,2.4-3.3,2.4s-0.4-0.2-0.5,0.5c-0.1,0.8-0.9,2.3-0.1,1.6c0.8-0.6,3.4-2.9,4-3.4c0.6-0.5,0.9-0.8,1.5-1.1
		c0.6-0.4,2-0.8,2-0.8l0.9-0.6c0,0-0.8-0.5-1.1-0.4c-0.4,0.1-1-0.5-1.9-0.1c-0.9,0.4-3.3,0.8-3.3,0.8s-1.5,0.3-2.4-0.1
		c-0.9-0.4-1.9-1-2.3-0.5c-0.4,0.5-2.5,1.1-2.9,1.1c-0.4,0-1.8-0.1-2.8-0.4c-1-0.2-1.3-0.2-1.8-0.2s-0.5-0.4-1.9-0.5
		c-1.4-0.1-1.8-0.5-2.1-0.4c-0.4,0.1-1,0.3-1.5,0.5c-0.5,0.2-2,0.2-2.4-0.1c-0.4-0.4-4.2-1.1-4.2-1.1s-0.5-0.6,0.6-1
		c1.1-0.4,0.9-0.4,0.8-0.9c-0.1-0.5-2-0.5-2.5-0.4c-0.5,0.1-1.8,0.4-2.3-0.1c-0.5-0.5-2-1.8-2.5-1c-0.5,0.8-0.3,1.8-0.8,1.6
		C551.1,188.1,547.6,188.5,547.6,188.1z"/>
	<path class="st1" d="M635.4,192.8c-0.1-0.6-2.4-2.5-2.3-3.1c0.1-0.6-1-1.4-0.5-1.4c0.5,0,2.5-0.2,2.3-0.6c-0.2-0.4-1.6-2.8-2.3-2.8
		c-0.6,0-2.5,0-2.6-0.8h0c-0.1-0.8-0.3-1.6-0.6-2.3c-0.4-0.6-8.6-4.9-9.6-5.3c-1-0.4-6.3-2-6.3-2s-2.5,1-2.5,1.4
		c0,0.4-1.3,1.8-1.8,2.3c-0.5,0.5-0.4,1-1.1,0.9c-0.8-0.1-0.9,0-1.3-0.4c-0.4-0.4-0.7-1.6-1.3-2c-0.5-0.4-1.5-0.9-1.3-1.9
		c0.3-1,0.6-2.4-0.1-2.4s-1.9,0.5-2.1,0.1c-0.3-0.4-1.8-0.2-1.8-0.2l-3.1,0.9l-0.4,0.1c0,0,1.4,2.6,2.3,2.4c0.9-0.2,2.5,1.8,2.5,1.8
		s-0.5,1.1-0.2,1.5c0.2,0.4,1.3,2.3,1.3,2.3l2-0.1l2,0.9l5.4,1.8l1.5,1.8l0.9,3.8c0,0-2.3,1.5-2.1,2.1c0.1,0.6,2.9-0.1,2.9-0.1
		l2.3,1.1l2.8,1.4l3.2,0.1l1.9-2.1c0,0,2.8-2.4,2.8-1.9s2.5,1.5,2.9,2.6c0.4,1.1,2.6,3.2,2.6,3.2s3.1,1,3.5,1.1
		c0.4,0.1,1.3,0.2,2.1,0.5c0.9,0.3-0.9-2.3-0.9-2.3S635.5,193.4,635.4,192.8z"/>
	<path class="st1" d="M571.4,108.6c-0.3-0.5-0.4-1.3-0.4-1.3l-1.3,0.5c-0.5,0.5-1.3,2.8-1.3,2.8s-0.5,2.3-0.1,2.8
		c0.4,0.5,1.4,1.9,1.4,1.9l0.5,0.9l0.8-1.5c0,0,0.4-1.5,0.5-1.9c0.1-0.4,0.6-1.5,0.3-2.1C571.4,110,571.7,109.1,571.4,108.6z"/>
	<path class="st1" d="M403.2,233.8c0.4,0.6,1.4,1,1.4,1s0.9,0.8,1.3,1c0.4,0.3,2.3-0.5,2.3-0.5s1.4-0.6,1.8-0.9
		c0.4-0.3,0.6-0.4,1.4-1.6c0.8-1.3,0.3-0.9,0.4-1.3c0.1-0.4,0.9-2,1.3-4.2c0.4-2.1,0.5-2,1-3.9c0.5-1.9,1.1-2.4,1.3-3.9
		c0.1-1.5,0.2-2.1,0.4-2.7c0.1-0.5,1.4-2.4,1.5-3.6c0.1-1.3,0.1-1.9-0.1-2.4c-0.2-0.5,1.5-0.1,1.8-0.9c0.3-0.8,0,0,0.1-0.4
		c0.1-0.4,0.3-2.8,0.3-4.2c0-1.4-1.4-3.5-1.5-3.9c-0.1-0.4-0.9,0.5-0.9,0.5h0c0,0-2,2.3-2.1,2.7c-0.1,0.4-1.8,2.4-2,3
		c-0.3,0.6-2.3,2-2.3,2l-3.7,1.5c0,0-1.3,0.1-0.9,0.6c0,0-0.3,1-1.1,2.1c-0.9,1.1,0,2.6,0,2.6l0.5,2.5v2.4c0,0-0.8,2.6-1.1,2.8
		c-0.4,0.1-1,0.9-1.4,2.1c-0.4,1.3-0.3,2.1-0.3,2.1s0.3,1.9-0.1,2.3C401.8,231.3,402.8,233.2,403.2,233.8z"/>
	<path class="st1" d="M632.8,249.3l2.8-5l1.5-5.7l1.1-4.3l-2.8-4.2l-1.1-3.5h0c0,0-1.4-0.6-1.5-0.4c-0.1,0.3-0.6-2.4-0.6-2.4
		l0.3-1.4c0,0-3.8-4.8-3.9-4.4c-0.1,0.4-1.4-3.9-1.4-3.9l-0.4-4.7l-0.9-2.8l-2.3,0.3l-0.5-4.5l-1.3-4.3l-0.6-0.2l-1.3,2.9
		c0,0-0.6,4-0.9,5.4c-0.3,1.4-0.4,3.4-1.1,4.7c-0.8,1.3-2.5,4.3-2.5,4.3s-2,0-2.3-0.4c-0.2-0.4-2.5-1.5-2.5-1.5l-1.4-2.1l-2.3-1.8
		c0,0-1.5-1.9-1.6-1.8c-0.1,0.1,1.1-1.8,1.5-2c0.4-0.2,0.5-1.5,0.5-1.5l2-1.6c0,0,0.4-0.6,0-1c-0.4-0.4-0.4-1-0.9-1.1
		c-0.5-0.1-3.4,1.3-3.4,1.3l-2.4-1.1c0,0-1.8-0.9-2.1-1.5c-0.4-0.6-1.4-1-1.6-0.8c-0.3,0.3,0,1.5,0,1.5s0.5,1.1,0.7,1.5
		c-0.2-0.2-1.1,0.4-1.1,0.4l-2.4,0.2l-1.5,1.4l-1.1,2.1l-0.8,1.5c0,0,0.6,1,0.4,0.9c-0.3-0.1-3.7,0.9-3.7,0.9s-0.9-1.9-1.3-2.3
		c-0.4-0.4-1.5-1-2-1c-0.5,0-1.8,1.1-1.8,1.1l-0.5,2.6l-1.9-0.5l-1.6,2.8l-1.6,0.6l-0.9,1.9l-0.5-2l-1.9,1.8l-0.6,2.9
		c0,0-2.4,2.3-2.6,2.8c-0.2,0.5-5.5,2.4-5.5,2.4l-3.4,1.1c0,0-1.8,0.4-2.1,0.4c-0.4,0-3.7,2.4-3.7,2.4l-1.1,1.1l-0.4-1l-1.4,1.5v3.2
		l-1.4,1.9l0.8,2.9l-1.1,0.4l-1,0.8l1.1,2.3l0.4,4.1c0,0,0.6,1.3,0.5,2c-0.1,0.7-0.6,1.5-0.6,2c0,0.5,0.4,2.4,0.4,2.9
		c0,0.1,0,0.2-0.1,0.3h78.8L632.8,249.3z"/>
	<path class="st1" d="M576,129.3c0,0,0.3-0.5,0-1.4c-0.2-0.9-0.8-2.4-0.8-3c0-0.6-1.4-1.3-1.4-1.3l-1.6,0.6l-0.6,5.5
		c0,0-1.1,0.4-1,0.9c0.1,0.5,0.1,2.9,0.8,3.4c0.6,0.5,1.6,1.1,1.6,1.1c0.2,0.6-0.4,1.9-0.4,1.9s1.5,1.8,1.6,2.3
		c0.1,0.5,0.9,0.2,0.9,0.2s-0.4-3.4,0.4-2.8c0.8,0.6,2.8,0.5,2.9,1.3c0.1,0.8,1.5,1.5,1.8,2.3c0.3,0.8,1.9,1,1.8,1.6
		c-0.1,0.6-1.1,0.6-1.8,0.8c-0.6,0.1-2.6-1.4-2.6-1.4s-0.5-0.1-0.6,0.6c-0.1,0.8,0.2,2.6,0.8,3.3c0.5,0.6,1,0,1.3,0.4
		c0.3,0.4,0,1.3,0.4,1.8c0.4,0.5,1.4,0.6,1.8,0.4c0.4-0.2,1.6-0.9,1.6-0.9s-0.1-1.5-0.6-1.8c-0.5-0.2-1.3-1-0.9-1.4
		c0.4-0.4,1.1-1.1,1.5-1c0.4,0.1,1.3,1.8,1.1,2.1c-0.1,0.4,0,0.5,0.5,1.9c0.5,1.4,0.8,1.1,0.1,1.4c-0.6,0.2-1.3,1-1.6,1.3
		c-0.1,0.1-0.1,0.1-0.1,0.1c-0.1,0-0.3-0.1-0.9-0.1c-1.6-0.1-1.3-0.9-1.6-0.1c-0.4,0.8-0.8,1.4-0.8,1.4l-0.9,0.4c0,0-0.6,2-0.5,2.6
		l0.1,0.6c0,0,1.3-2.4,1.6-2.4c0.4,0,0.4,0.6,0.9,0.2c0.5-0.4,1-0.1,1-0.1s0.8-0.4,0.6,0.6c-0.1,1-0.1,1.1,0.2,2.2
		c0.4,1,1.4,1.5,1.8,1.9c0.4,0.4,0.9,0.6,1.1,0.9c0.3,0.2,0.4-1.1,0.3-2.1c-0.1-1-0.6-1.8,0.5-1.4h0c1.1,0.4,1.5,0.1,1.4-0.4
		c-0.1-0.5-0.5-3.1-0.8-4.1c-0.3-1,1.5-1.8-0.4-3.3c-1.9-1.5-1.8-1.4-1.9-1.5c-0.1-0.1-0.1-1.4-0.1-1.4s0.4-1.3,0.1-1.6
		c-0.2-0.4-0.5-1.1-0.8-1.5c-0.3-0.4-0.3-0.5-1-0.5c-0.8,0-0.8-0.9-1.3-0.8c-0.5,0.1-1.8,1.1-0.9-0.4c0.9-1.5,0.4-1.8,0.4-2
		c0-0.2-0.6-0.6-1.3-0.8c-0.6-0.1-1.1-0.9-2-0.6c-0.9,0.3-1.3-0.4-1.8-0.4c-0.5,0-0.8-0.6-0.9-1.4c-0.1-0.8,0.1-2.3,0.1-2.6
		C575.2,130.4,576,129.3,576,129.3z"/>
	<path class="st1" d="M577.4,169.3L577.4,169.3c1.4,0.8,2.3,1.1,3.4,1.5c1.1,0.4,2.3-0.8,2.5-0.5c0.2,0.2,1.4-0.9,1.4-0.9
		s0.9-1.3,0.8-1.6c-0.1-0.4-0.3-1.5-0.5-1.1c-0.2,0.4-2.6,1.8-3.1,1.9c-0.5,0.1-1.8-0.4-2.9-0.4c-1.1,0-3.9-0.9-4.3-0.5
		c-0.4,0.4-1.5,1.9-1.4,2.5c0.1,0.6,0,1,0,1.4c0,0.4-0.4,2.1-0.4,1.6l-1.8,4.7c0,0,1.4,3.5,1.3,4.2c-0.1,0.6-0.4,4.2,0,3.8
		c0.4-0.4,2.3-0.6,2.3-0.6s0.6-2.3,0.5-3.3c-0.1-1-1.3-4.2-0.3-3.9c1,0.3,2,1.5,2,1.5s-0.8,0.8-0.5,1.3c0.3,0.5,1.1,1.1,1,2.3
		c-0.1,1.1,0.4,1.6,0.4,1.3c0-0.4,1.3,0.3,1.4,0.5c0.1,0.2,1.3-0.8,1.5-0.8c0,0.1,0,0.1,0,0.1c0,0,0-0.1,0-0.1c0,0,0,0,0,0
		c0-0.4,0.2-1.9-0.1-2.3c-0.4-0.5-0.4-1.3-1.3-2.3c-0.9-1,0.2-1.3-0.6-2.4c-0.9-1.1-1.3-0.7-0.9-1.1c0.4-0.4,1.1-0.6,1.8-1
		c0.6-0.4,1.1-1.4,1.1-1.4c0.1-0.4,0.4-0.2-0.6-0.5c-1-0.3-1.9-0.5-2.5,0.3c-0.6,0.8-1.3,0.9-1.3,0.9s0,0-0.5,0.1
		c-0.5,0.1-0.4-0.8-0.8-0.9c-0.4-0.1-0.4-0.2-0.6-1.1c-0.3-0.9,0-2.3,0.4-2.5C575.1,169.5,576,168.6,577.4,169.3z"/>
	<path class="st1" d="M538.3,171.2c0,0-4.3-4-4.8-4c-0.5,0-3-2-3.4-2.1c-0.4-0.1-2.4-3.5-2.4-3.5l-8.6-4.3c0,0-1.1,1-1.1,1.5
		c0,0.5,1.5,0.8,1.5,0.8s0.5,0.4,1,0.6c0.5,0.3,2,1.5,2.1,2.4c0.1,0.9,0.4,1.4,1.3,2.1c0.9,0.8,2.4,1.1,2.4,1.1s0.6,2.1,1.1,2.4
		c0.5,0.3,0.9,1.4,1.1,2c0.3,0.6,2.7,4.5,2.5,5.9c-0.1,1.4,1.8,4.7,1.8,4.7s4.3,3.4,4.4,3.9c0.1,0.5,3.3,1.4,3.3,1.4
		s1.5-1.3,1.9-2.3v0c0.4-1,0-1.1-0.2-1.6c-0.2-0.5,0.5-2.8,1.5-3.7c1-0.9-0.5-1-0.5-1l-1.5,0.3l-1.4-2.6c0,0-2.4-1.9-3.1-2.4
		C536.4,172.2,538.3,171.2,538.3,171.2z"/>
	<path class="st1" d="M314.4,41.8c0.4-0.2,0.5-0.9,0.7-1.2c0.2-0.3-0.3-0.9-0.3-1.1c-0.1-0.2-0.9-0.1-1.2-0.2
		c-0.3-0.1-1.3,0.1-1.3,0.1l0.1-1.3c0,0-3-4-2.9-4.2c0.1-0.2-0.7-1.4-1-1.4c-0.3-0.1-0.7-0.3-1.1-0.8c-0.4-0.5,0.5-1.1,0.5-1.1
		s1.1-1.1,1.2-1.4c0.1-0.3-0.1-1-0.3-1.1c-0.2-0.1-2.4,0.1-2.4,0.1s-0.6-0.5-0.6-0.7c0.1-0.2,0.7-0.3,0.9-0.3c0.2,0,1.3-2.2,1.6-2.3
		c0.2-0.1-0.2-0.6-0.2-0.6l-0.9,0.4l-0.8,1.2c0,0-0.8,0.2-1.1,0c-0.3-0.2-0.9,0-1.2-0.1c-0.3-0.1-0.8,0.8-0.8,0.8s-0.9,0.9-1.1,1
		c-0.3,0.1-1.1,1.1-1.1,1.1c0.1,0.1,0.1,0.9,0.1,0.9s-0.2,0.3-0.5,0.4c-0.3,0.1,0.2,1.1,0.2,1.1l0.8,0.4c0,0-0.4,0.4-0.7,0.4
		c-0.3-0.1-0.8,0.6-0.4,0.8v0c0.4,0.2,0.6,0.4,0.6,0.6c-0.1,0.2,0.9,0.3,0.9,0.3l0.8-0.2l-0.6,0.9c0,0,0.1,0.6,0.3,0.8
		c0.2,0.3,0.8,0,0.8,0s1.5-0.3,1.7-0.2c0.2,0.1-0.1,0.6-0.1,0.6l0.6,0.9c0,0,0.3,1.3,0.4,1.6c0.1,0.4-0.5,0.2-0.5,0.2
		s-1.2,0.2-1.4,0.1c-0.3-0.1-0.7,0.4-1.2,0.9c-0.4,0.5,0.1,0.3,0.1,0.3h0.9c0,0,0.1,0.6,0.1,0.9c0.1,0.3-0.8,0.5-1,0.4
		c-0.3-0.1-1.4,0.5-1.4,0.5l0.1,0.9l1.4,0.1l1.4,0.2l0.3,0.4c0,0-0.9,0.2-1.1,0c-0.3-0.2-1,1-1,1l-0.7,0.8l-1.5,1.1l0.8,0.4l0.5-0.6
		l1.3,0.1l1.4-0.2c0,0,0.8-1,1-1c0.2,0,2.1-0.1,2.1-0.1s1.6-0.3,1.8-0.2c0.2,0.1,1.4,0.4,1.6,0.4c0.2,0.1,2.6-0.7,2.6-0.7
		s0.5-0.8,0.6-1.1c0.1-0.3-0.7-0.5-0.9-0.7S314,42,314.4,41.8z"/>
	<path class="st1" d="M128.7,1c0,0-1.4,0.6-0.4,0.9c1,0.3,2.9,1.1,2.9,1.1s0.1,0.9,0.1,1.1c0,0.3,0.6,1,2,0.1
		c1.4-0.9,4.2-1.9,4.5-1.5c0.4,0.4,1.3-0.1,2.5-0.3c1.3-0.1,2.3-0.5,2.3-0.5l1.6,0.3c0.8,0.4,1.4-0.5,2.7,0.2c1.3,0.8,3,0.8,3,0.8
		s1.8-1.4,2.1-1.5c0.4-0.1,1.1-0.3,0.8-1.1c-0.1-0.2-0.2-0.4-0.3-0.6h-23.7C128.6,0.6,128.7,1,128.7,1z"/>
	<path class="st1" d="M384.3,3.4C384.2,3.4,384.2,3.4,384.3,3.4C384.2,3.4,384.2,3.4,384.3,3.4z"/>
	<path class="st1" d="M293.1,40l-1.1,0.7l-0.3,1.2l0.9,0.6l1.5,0.3l1.6-0.4l1.3-0.8l0.4-0.4l2.2-0.1l0.3-0.9l0.5-0.9v-2.7l1.2-0.7
		l-0.4-1.8l-1.9-0.4l-1.5-0.3l-1,0.3l-0.6,0.8c0,0-0.9,1-0.7,0.8c0.2-0.2,0.7-0.2,0.6,0.1c-0.1,0.3-0.6,0.6-0.6,0.6h-0.7l-0.6-0.4
		l-0.9,0.1l-0.3,0.6l0.4,0.9l-0.6,0.6l0.8,0.6l0.8,0.2l-0.1,0.9L293.1,40z"/>
	<path class="st1" d="M283.8,14.3L283.8,14.3l5.3-1.7l1.1-2.1l-2.1-1.7l-9.6,1.1l-2.8-1.7l-3.4,1.9c0,0,1.7,0.8,2.3,1.1
		c0.6,0.4,1.7-0.4,1.7-0.4v1.7c0,0,3,1.7,2.6,2.3C278.5,15.4,283.8,14.3,283.8,14.3z"/>
	<path class="st1" d="M199,18.7C199,18.7,199,18.7,199,18.7C199,18.7,199,18.7,199,18.7z"/>
	<path class="st1" d="M200.7,247h1.9l2-3.7l0.8-3.4l-0.6-4.2l0.9-1.5l6.5-4.4l4.9-1.6l1.6-1.3c0,0,2.5-3.4,2.5-3.8s1-5.3,1-5.3
		s1.1-5.8,1-6.2c-0.1-0.4,0.3-5.4,0-5.5c-0.3-0.1,0.1-1.5,0.1-1.5l4.8-6.8l2.3-5.2c0,0,1.6-2.6,1.4-3.1c-0.3-0.5-1.6-4.8-1.6-4.8h0
		c0,0-3-0.6-3.2-1c-0.1-0.4-5.3-4.9-5.4-4.8c-0.1,0.1-2.1-2-2.4-1.4c-0.2,0.6-4.2,0.6-4.2,0.6l-4.2-1c0,0-1.8,1.3-1.4,0.8
		c0.4-0.5,0.1-3.5,0-3c-0.1,0.5-6.3-2.6-6.3-2.6l-2.1,1.9v-2.4l-3.3-2l0.4-2.6l-1.5-1.3c0,0-0.2,0.4-0.4,0.1c-0.1-0.2-1-5.3-1-5.3
		l-4.8-3.9l-5.8-0.3l-5.3-2.9l-1.1-2.6c0,0-3-1.4-3-1.8c0-0.4-0.9-0.1-1.1-0.3c-0.2-0.1-0.1-1.4-0.1-1.4l-1.4-1.1l-0.5-0.3l-1.2-0.4
		l-0.8-1.1c0,0,2.7-1.2,2.5-1.1c-0.3,0.1-6.1,0.9-6.1,0.9l-0.6,1.1l-2.7-1.4l-4.6-0.3c0,0-3.3-1.3-3.2-1.7c0.1-0.4-1-1.8-1-1.8
		s-0.8,1.8-0.9,2c-0.2,0.2-2.5,2.2-2.5,2.2l0.2,3l-1.6-1.7l1.1-1.6v-2.3c0-0.3,1.4-0.9,1.4-0.9l-0.6-1.2c0,0-1.7,0.5-1.7,0.8
		c0,0.3-2.3,1.6-2.3,1.6l-2.7,1h-1.2c0,0-1.2,2-1.5,2.1c-0.3,0.1-0.2,1.9-0.2,1.9s-3,3.4-3.2,3c-0.2-0.4-3.4-3-3.4-3l-3.8,0.5
		l-2.2,1.1l-2.6-1.8l-2.1-3.2l0.2-3.8l1.1-4.2l0.5-2.7l-2.8-2.1c0,0-5.8,0.5-5.8,0.2c0-0.3-3.1,0.1-3-0.2c0.1-0.3,1.1-2.1,1.1-2.4
		c0-0.3,0.8-2.5,0.8-2.5l1.2-2.5l1.6-4.7l0.9-1.6l-4.7-0.3l-2.8,1.1l-1.6,4.7l-8,2.2l-2-1.5c0,0-0.2,0.9-0.1,0.4
		c0.1-0.5-2.5-3.8-2.5-3.8l-1.2-4.6c0,0,3.2-9.5,3.1-9.4c-0.1,0.2,0.1-3.5,0.1-3.5l10.1-6.6l3.9,0.6l0.9,0.9l2.4-0.4l2.4-2.4l3,0.4
		l2.9-0.6l1.8,2l2.6-1l1.4,1.5l0.9,0.9v1.6l-0.7,1.5l0.7,3.4l1.9,2.6l1.2,0.5l1.5-4.2l-0.3-3.9l-0.7-3.1v-2.3l3.9-4.7l5-3.6l4-2.3
		l3.5-3.8l-0.2-3.6l1.5-0.3l1.5-3.2l1.5,0.2l2.9-3.7l4.9-1.7l3-0.6l0.9-1l-1.1-0.9l2.4-3.5l7.5-2.9l4.5-1.3l-3.7,2.4l0.8,1.8
		l2.7-0.8l2-1.2l5.2-1.4c0,0,1.2-2.1,1-1.6c-0.2,0.5,2.6-0.5,2.6-0.5l-0.6-1.1l0.2-1.5l-1.5,0.6l-2.3,2.5l-3.7-0.2l-1.7-2.6l1.6-2.2
		c0,0,1.6-3.2,1.5-3c-0.1,0.2-2.5-0.8-2.5-0.8l-3.7,1.3c-0.4,0-3.9,2.1-3.8,1.8c0.1-0.3-1.8,1-1.8,1l4.8-3.9l2-0.3l2.3-2.1h10.9
		l3.7-0.8l4.9-2.6l0.4,0.5l-2.1,2l-2.6,2.6l-2.5,2.6l-1.2,1.6l3.9,0.2c0,0,3,0.1,3.3,0c0.4-0.1,0.5,1.3,0.5,1.3l1.6-1.1l0.9,2.2
		l2.8-2.2l-0.9-2.5l0.8-2.3l-3.3,0.1v-1.2c0,0-1.2-1.4-1.3-1.2c-0.1,0.2,1.9-1.6,1.8-1.4c-0.1,0.2-0.9-0.9-0.9-0.9l2.3-2.8l-1.1-3.2
		l-0.4-1.6l-2.9-1.4l-1-1.4l-1.3-1l1-2.5l-0.5-1.8c0,0-0.8-5.9-0.9-5.7c-0.1,0.2-4,3.2-4,3.2l-4,2l-2.1-1.8l0.2-2.4l1.8-1.7
		l-2.9-0.9l-0.2-0.8c0,0-2.6-2.6-2.8-2.5c-0.2,0.2-0.9,0.9-0.9,0.9l-6.2-0.6l-2.2,3.8l-0.5,2c0,0-3.4,3.4-3.8,3.7
		c0.2-0.1,1.8,1.5,1.8,1.5l-1.4,3.4l-5.4,3.1l-2.6,0.4c0,0-1.6,5.9-1.5,6.2c0.1,0.4-2.2,1.4-2.2,1.4l-1.6,1.1l-0.7-2.1
		c0,0-0.7-1.6-1-2c0.4,0.2,2,0.4,2,0.4l0.3-1.3l-1.5,0.1l0.7-2.2l1.4-2.4l-4.9-0.4l-1.1-1.3l-2.5-0.4l-0.2-1l-1.7-1l-2.1-0.9
		l-2.3,0.3l-0.1-2l0.6-1.9l-2.3-0.4c0,0,4-4.1,3.9-3.9c-0.1,0.2,11.1-5.6,11.1-5.6l1.3-1.4l2.2-0.2l4.7-2.2l3.6-2.5l0.4,0.2
		l-2.7,2.5l-0.8,0.9l-2.2,1l2,0.3l-0.3,1.1l2.2-0.4l2.2-1.8l1.7,0.6l0.8,0.8l2.4-0.1l-0.1-1.8l-3.7-2.6l-0.9-0.8l-0.4-0.9l1.6,0.2
		l1.3,1.1l1.4-1.4l2.8-0.4l2.8-2l-0.2-1.2l2.2-2.1L181.7,1l3.8-0.1l3.3,0.1c0,0,1.6-0.8,1.9-0.3c0.3,0.5,2.7,2.3,2.7,2.3l-0.9,0.9
		l-3.9,0.5l-0.9,1.9l2.8,0.4l2.2-2.3l2.4-0.2l0.4,2.3c0,0-2.6,1.5-3,1.6c-0.4,0.1-2,0.8-2,0.8l-0.1,1.7l-2.5,0.3l-2.6-0.5l-1.2,0.1
		l-2,1.6l1.6,1.4c0,0,2.4-0.9,2.7-1.2c0.4-0.3,1.6-0.9,1.9-0.4c0.3,0.5,1.9,1.8,1.9,1.8l1.3,2.6l1.2,0.4l3.8,1.2
		c0,0,2.5,0.6,2.6,0.8c-0.1-0.2-0.3-1.6-0.3-1.6l-2-2.4c0,0-0.1-0.7,0.6-0.5c0.7,0.2,2.3,1.6,2.3,1.6c0.3,0.1,2.2,1.2,2.2,1.2
		l0.8-2.1l1.7-1l-0.7-1.2l-0.9-1l-1-1.2l0.1-1.4c0,0,0.3-0.2,0.6-0.4c0.3-0.2,1.1-0.8,1.3-0.5c0.2,0.4,2.1,2.8,2.1,2.8l1.8,0.4
		l0.9-1.4c0,0,2.4-0.3,2.4-0.2c0,0.1,0.2-1.1,0.2-1.1l2.2-0.6l-3.1-2.7l-1.7-0.9l-1.3,0.4l-1.2-1.4l1.3-1.2l0.6-1.7L206.9,0H175
		l2.6,0.4l1.2,0.3L178,1.4l-0.7,1.4L175.3,4l-2.6,1.9l-2.2,0.8l-0.4-1.5l1.9-1.1c0,0-0.4-2.4-0.6-2.2c-0.2,0.2-2.2-0.1-2.3,0.2
		c-0.1,0.3,0.1-1.8,0.1-1.8l0-0.3h-7.6l-0.2,2l-2.1-0.4L158,1.3l-3.8,1.5v2.1l-6.9,0.4c0,0-3.3-0.5-3.3-0.9c0-0.5-1.2-1.4-1.6-1.4
		c-0.4,0-4.6,1.3-4.6,1.3l-0.2,1.3l-4.9-0.3c0,0-4.1,0.7-4,0.4c0.1-0.4-2.2-0.2-2.2-0.2l3.4-1.5l-2.4-1.1l-4.3-0.7l-3-0.9l-3.4,0.5
		l-0.4-1.4l-3,1.2L112.9,0h-1.2l-1.1,0.5c0,0-7.7,1.6-8.1,1.7c-0.4,0.1-2.3-0.8-2.3-0.8l-2.4,1.1l-4.5,0.3l-1.8-1.3l-3.7-0.8L83.8,1
		l-5.8-1H59.6l-7.9,2.6l-6.5,1.3c0,0,0.2,1.7,0.3,2C45.6,6.1,46.2,8,46.2,8l-1.8,0.4h-1.9l1-1.3l-9.6,2.6l0.2,1L33.3,12l3,0.3
		l2.6,0.3c0,0,1.4-0.8,1.4-0.6s-0.8,2.5-0.8,2.5l-2.9,0.2c-0.2-0.3-1.7,0.1-1.7,0.1s-2,1.2-2.1,0.9c-0.1-0.3-4,0.7-4,0.7l-4.4,2.6
		l-1.7,2.5l-0.2,1.9l3.3-0.6L24,25.3l2.2-0.1c0,0,2.6,0,2.7,0.4c0.2,0.4,1.3,0.2,1.3,0.4c0,0.2-22.5,8.9-22.7,8.6
		C7.3,34.3,4,36.1,4,36.1s4.3-0.8,4.6-0.8c0.3,0,6.7-1.5,6.7-1.5l3-0.9c0,0,6.5-1.9,6.6-2.2c0.1-0.3,4.6-2.6,4.9-2.6
		c0.3,0,1.8-0.7,1.9-0.3c0.1,0.4,6.5-1.7,6.5-1.7s2.3-1.6,2.1-1.9c-0.2-0.3-1.5-1-1.1-1.1c0.4-0.1,3.8-0.6,3.8-0.6s5.1-2.1,5-1.8
		c-0.1,0.3-5.2,3.7-5.2,3.7l7.3-1.4l2.9-1.2c0,0,2.5-1.1,2.3-0.8c-0.2,0.3,2.8,1.1,2.8,1.4s6.3,1.2,6.3,1.2l1.9,2.8L66,30.1
		l-0.2,4.6l3.4-0.4l-0.8,3l0.2,5c0,0,0.2,1.8,0.2,2.1s-2.6-0.6-2.6-0.6s-0.4,2.2-0.1,2.5c0.3,0.3,3.4,3.4,3.4,3.4l-1,1.3L66,57
		l-5.6,6.4l-0.9,3.5l-2.7,3l0.5,2.2c0,0-0.8,1.5-0.6,1.7C56.8,74,58,84.2,58,84.2l4,2.5l1,1.9l0.6,7.7l1.7,3.5l-1.9,1.3l2.2,3
		l0.9,0.1l1.7,2l-0.7,2.6l1.8,1.4l1.7,2.6l0.3,1.3l1.6-1.6l-1.6-3.3c0,0-1.1-2.5-1-3c0.1-0.6-1.5-4.8-1.5-4.8s-1.5-3.2-1.3-3.5
		c0.2-0.3-1.1-2.2-1.1-2.2l0.7-3.9l2.7,0.6c0,0,0.5,3.6,0.5,4c0,0.4,0.7,2.6,0.7,2.6l3.6,5l-0.6,2.6l6.9,8.2l-0.1,3.3l-1,1.6
		l0.6,2.3l5.8,4.2l0.9-0.2l1.7,1.7l6.2,3.1l3.1,0.8l3.7-1.1l2.4,1.1l3.6,4.2l3.7,0.9l3.8,1.3h1.8l0.5,2.2c0,0,1.7,2.2,2.1,2.5
		c0.4,0.3,0.1,2.7,0.1,2.7l1.6,0.8l1.9,2l1.2,1.1l1.3,1.5l0.8-0.6l1.7,0.5l2.5,2.3l1.6-1l-0.5-1.8l1.5-1.5h1.3l1.4,1.1l-0.1,1.3
		l1.7,2.7l0.1,7.7l-1.5,2.5l-2.1,1.4l-0.1,2.3l-2.2,0.8l-0.8,3l-1.3,2.6l0.3,2.3l1.9,1.7l-1.7,1.8l-1.2,1.8l1.1,3.6
		c0,0,0.6,1.8,0.6,1.6c0-0.2,1.8,1.2,1.8,1.2l3.3,6.6l3.2,4.6c0,0,4.7,9.4,4.8,9.5c1.4,1,11.7,8.4,11.7,8.4l1.8,9.2l0.5,19.4l1,3.8
		H200L200.7,247z"/>
	<path class="st1" d="M147.8,119.9c-0.1-0.3-1.5-0.7-2.3-0.7c-0.8,0-3.5-2.7-3.7-3.2c-0.2-0.6-6.3-2.1-6.3-2.1s-6.7-0.4-6.7-0.6
		c0-0.2-3.2,2.5-3.2,2.5v0.3c0,0,0.3,1.3,0.4,1.6c0.1,0.3,2.2-1.5,2.4-2.3s1.7-0.9,2.1-1.1c0.4-0.2,0.6,0.8,0.9,0.8
		c0.4,0,2.1,0.6,2.1,0.6l3.4,1.1l1.3,1.2c0,0,0.6,3,0.6,3.4c0,0.4,2.6,0.2,2.6,0.2l5-0.5C146.2,121.2,147.9,120.2,147.8,119.9z"/>
	<path class="st1" d="M147.6,126.3c0.5,0.2,1.2-0.1,1.6-0.1s1.6-0.3,1.6-0.3s0.4,0.9,0.4,1.1c0,0.3,2-0.1,2-0.4c0-0.3,0.5-1,0.5-1
		l2.4-0.5c0,0,3.2,0.1,3.5,0.1c0.3,0,0.5-0.6-0.1-1.6c-0.6-1-2.2-1.2-2.6-2c-0.4-0.7-2.2-0.3-2.6,0c-0.5,0.3-3.1-0.7-3.9-0.7
		c-0.7,0,0,0.8,0,0.8l-0.3,2.7h-3.1l-0.1,0.3c0,0-0.9,0.3-0.9,0.9C146,126.3,147.1,126.1,147.6,126.3z"/>
	<path class="st1" d="M228.1,1l3.8-0.8l-0.4,1.3l-2.6,0.6l-2.6,3.2l-0.2,6l0.6,5.1l1.5,4.2l2.5,0.4l2.8,1.7l3.8-0.2l3.8-5.1l4-3.8
		l1.1-2.1l1.9-1.1l4.1-0.9l5.3-1.1c0,0,4.9-3.2,5.5-3.6c0.6-0.4,14.2-4.5,14.2-4.5l3,0.2h0c0,0,0-0.2,0.1-0.5h-51.9L228.1,1z"/>
	<path class="st1" d="M588.9,2.9l-3.5-0.5c0,0-4.3-0.7-4.4-0.9c-0.1-0.2-12-0.3-12-0.3L567.9,0H431.8c0,0.5,0.1,1.5,0.2,1.7
		c0.1,0.3,2.1,1.6,2.1,1.6s1.2-0.8,1.4-0.9c0.2-0.2,1.8-0.5,2.2-0.1c0.4,0.4-0.8,1.3-1.1,1.1c-0.3-0.2-1-0.4-1.3-0.3l-0.3,0.1
		c0,0-0.4,0.9,0,1.1c0.4,0.2,1,0.8,1,1.1c-0.1,0.3-1.3,2.5-1.3,2.5l-1.8,0.4c-0.6-0.1-1.6-0.6-1.6-0.6l1.9-1.4l0.3-2
		c0,0,0.1-0.1-0.4-0.6c-0.5-0.4-2.3-2-2.3-2s-0.7-1.2-1-1.7H421c0,0.4,0.1,1.1,0.2,1.4c0.1,0.3,2.7,1,2.7,1s1.4,0.6,1.5,1.1
		c0.1,0.6-0.4,1.3-0.4,1.3l-2.7-1.3l-6-1.9c0,0-5.8-0.4-5.7-0.6c0.1-0.1-0.7-0.6-1.4-1h-1.7l-0.4,0.2c0,0,1.3,0.9,1.5,0.9
		c0.2,0.1,2.1,0.8,2.1,0.8s0.6,0.3,0.7,0.8c0.1,0.5-1.1,1.1-1.1,1.1s-0.8-0.9-0.8-1.1c0-0.2-0.2-0.9-0.4-0.8
		c-0.3,0.1-2.6,1.3-2.6,1.3s-2.6,0.1-3,0.3c-0.3,0.3-2,1.5-2.1,1.1c-0.1-0.3,0.2-1.6,0.2-1.9c-0.1-0.3-2.6,0.4-2.6,0.4
		s-3.3,1.1-3.5,1.4c-0.1,0.3-1.6,0.6-1.9,0.7c-0.2,0.1-0.6,0.1-0.6,0.1s-1.3,0.8-1.1,1.3c0.3,0.4-1.8,0.7-1.8,0.7s-1.3-0.8-1.4-1
		c-0.1-0.2,1.4-1.2,1.6-1.3c-0.2,0.1-1.6-1.6-1.8-1.7c-0.2-0.1-3.6,0-4.2,0c0.4,0.1,1.6,1.3,1.6,1.5c0,0.2,0.2,2,0.2,2
		s1,0.6,1.2,0.6c0.2-0.1-0.2,1.1-0.2,1.1l-1.7-0.2c0,0-0.7-1-1.3-0.4c-0.6,0.6-2.5,2-2.6,1.8c-0.1-0.2-1.2,0.2-1.1,0.6
		c0.1,0.4,0.9,1.2,0.9,1.2s-1.2,1-1.1,0.6c0.1-0.4-3.3-1.3-3.5-1.2c-0.3,0.1-1.7,0.5-1.7,0.5l0.6,1.1c0,0,1.9,0.1,2.1,0.5
		c0.3,0.4-0.4,1.1-0.6,1.1c-0.2,0-4.6-2.1-4.6-2.1s-1.5-1.5-1-1.9c0.5-0.4,0.8-1.1,0-1.1c-0.8,0-1.7-0.6-1.8-0.9
		c-0.1-0.3,5,0.5,5,0.5l2.9,0.3c0,0-0.4,0.4,0.8,0c1.1-0.4,3-1.3,3.3-1.4c0.3-0.1,0.6-1.3,0.6-1.3l-0.4-1.1L371,2.7
		c0,0-3.6-1.1-3.7-1.3c-0.1-0.2-3.2-0.5-3.2-0.5l-1.5,0.2l0.9-1.1h-15.8l-4.5,1.1l-7.1,3l2.6,0.3l-1.1,1.9l-3.1,2.3l-1.8,2.9
		l-0.3,1.6l-1.7,1.8c0,0-1.2-0.6-1.4-0.9c-0.2-0.3-4.4,1.2-4.4,1.2l-2.5,2.4c0,0-0.6,1.2-0.8,1.5c-0.1,0.3,0.2,3.7,0.2,3.7
		s1.5,0,1.1,0.4c-0.4,0.4-0.4,2.5-0.4,2.5l1.8,1.2c0,0,2.3,0.8,2.7,0.7c0.3-0.1,1.4-0.8,1.6-0.9c0.2-0.1,1.6-1.5,2-1.5
		c0.4,0.1,1.6-1.2,1.7-0.7c0.1,0.4,0.4,2,0.6,2.4c0.3,0.4,1.1,1.1,1.5,1.9c0.4,0.9,0.9,1.8,0.8,1.9c-0.1,0.2-1,1.1-1,1.1
		s-1.9,0.3-2.1,0.5c-0.2,0.2-0.6,0.4-0.8,0.2c-0.2-0.1,0.6-1,0.8-1.3c0.2-0.3-0.4-1.3-0.7-1.2c-0.3,0.1-0.5-0.6-0.3-0.8
		c0.3-0.2,0.2-1.4,0.2-1.4s-0.4-0.2-0.6-0.1c-0.2,0.1-2.4,0.9-2.4,0.9s-1.2,1.3-1.3,1.5c-0.1,0.3-0.6,1.6-0.2,2.5
		c0.3,1,1.1,2.5,1.1,2.5s0.8,0.6,0.5,0.8c-0.3,0.2-0.9,1.2-0.9,1.2l-1.5,0.1c0,0-2.7,0.3-3,0.4c-0.2,0.1-2.9,0.9-2.8,1.2
		c0.1,0.3-0.6,3-0.6,3c-0.1,0.1-2.8,2-3.1,2c-0.3,0-2.3,0.5-2.3,0.5s-0.9,2.3-0.9,2.2c-0.1-0.1-3,1.4-3,1.4s-2.2-0.6-2.3-0.9
		c-0.1-0.2-0.8-0.8-0.9-0.6c-0.1,0.2,0.8,2.1,0.8,2.5c0,0.4,0.1,1.1-0.1,0.9c-0.3-0.3-1.5-0.6-1.8-0.8c-0.3-0.1-2.4-0.1-2.4-0.1
		h-0.9c0,0-1.1,0.9-1.1,0.8c-0.1-0.2-0.1,0.8-0.1,0.8l0.6,0.6l2.3,0.9l2.1,1.3l0.8,2l0.9,1.9c0,0-0.6,3.9-0.7,4.1
		c-0.1,0.2-1.5,1.1-1.5,1.1l-4.1-0.1c0,0-2-0.4-2.2-0.5c-0.2-0.1-3,0.4-3.1,0.1c-0.1-0.3-0.9-0.2-0.9-0.2l-0.4-0.5h-1.1l-0.9,1.1
		l-1.4,0.1v1.1c0,0,0.6,2.6,0.5,2.4c-0.1-0.2-0.2,3-0.2,3s-1.4,2.7-1.5,2.9c0,0.1-0.1,1.8-0.1,1.8l0.8,1.3l0.1,1.6
		c0,0-0.6,1.4-0.4,1.3c0.3-0.1,2.3,0.1,2.3-0.2c0.1-0.2,1.3-0.8,1.4-0.4c0.2,0.4,0.9,0,1.1,0.8c0.2,0.8,0.9,1.8,0.9,2
		c0.1,0.2,0.6,0.4,0.6,0.4l0.2,0.5l-0.4,0.3l-1.6,3.5l-3.5,2.5l-2.1,1.3l-0.6,1.6l-0.9,1l-0.3,2c0,0,0.3,2.5,0.1,2.6
		c-0.1,0.1-4.7,4.5-4.7,4.5l-2.5,0.6l-1.4,2.4c0,0-1.9,1.8-2,2.1c-0.1,0.3-1.1,1.5-1.1,1.5s0.1,2.5,0,2.1c-0.1-0.4-2.7,2.1-2.7,2.1
		s-0.5,2.9-0.6,3c-0.1,0.1-1.4,2.3-1.6,2.3c-0.2-0.1-0.4,1.5-0.4,1.8c0,0.2,0.6,1,0.6,1s0.9,1.7,0.9,1.5c0.1-0.2,0.1,0.6,0.1,0.6
		l-0.9,0.9c0,0,0.9,1.5,0.9,1.6v3.9l-1,2.1l-0.5,2.8l-1.5,1.2l0.1,0.8l1.3,1.1l0.2,1.2l-0.4,1.3v1.3l0.9,2.2c0,0,0.9,0.8,1.1,0.6
		c0.2-0.2,2.1,1.2,2.3,1.6c0.3,0.4,2.6,3.2,2.6,3.3c0,0.1,0.4,0.8,0.4,0.8l1.1,3.8c0,0,5.5,4.5,5.6,4.3c0.1-0.2,5.9,4.1,5.9,4.1
		s4.6-2.3,4.5-2.1c-0.1,0.2,3.9-0.2,3.9-0.2l2.4,0.4l1.8,0.8l6.4-3l1.3-1l5-0.2l2.4,0.9c0,0,1.6,2.3,1.6,2.7s0.9,2.1,1.1,1.8
		c0.1-0.2,5.6-0.5,5.8-0.4c0.2,0.1,2.6,2.4,2.6,2.4l-0.1,2.2l-0.4,3.9l-0.8,1.9l-0.7,1.7l-0.2,1.2c0,0,5.7,8.3,5.7,8.4
		s1.4,3.5,1.4,3.5l1.7,4.3l1,2.5l-1,1.4l1.6,4.2l-0.6,4.1l-2.5,5.4l-1.1,4l0.3,5.3l2.9,6.1l3.1,7l0.3,7.7l2.5,4.6l1.8,3.7l1.7,4
		l0.3,0.4H372c1.3-1.6,3.9-5.1,3.9-5.1l2.3-2l1.3-4l-0.2-2.6c0,0,0.4-1.3,0.9-1.6c0.4-0.2,4.7-2.8,4.7-2.8l0.9-4.2l-0.8-4.1
		c0,0-0.6-1.6-0.6-1.8c0-0.2,0.4-1.4,0.4-1.4l4.2-3.7c0,0,0.9-1.2,1.4-1.6c0.4-0.4,4.3-2.1,4.3-2.1l2.7-2.6l0.4-9.5
		c0,0-0.9-3.5-1-3.8c-0.1-0.3-1.9-6.3-1.9-6.6c0-0.2-0.6-3.9-0.7-4.2c-0.1-0.3,1.4-4.5,1.4-4.5l2.1-4.1l8.5-9.8l4.8-3.8l7.2-11.8
		l2.3-5.5l0.5-5.5l-1.5-0.3c0,0-0.8,0.9-0.9,1c-0.2,0.1-4.5,0.4-4.5,0.4l-5.3,1.6l-2.6,0.9l-2.5-2.6l0.4-1.9l-3.4-4l-4.8-4.8
		c0,0-2.4-1.8-2.3-2c0.1-0.2-1.3-4.6-1.3-4.5c0,0.1-2.4-2.2-2.4-2.2l-0.1-4.2l-2.6-4.2l-2.8-5.2c0,0-2.4-5.9-2.7-6.2
		c-0.2-0.3-1.2-1.9-0.9-1.8c0.3,0.1,2.6-0.3,2.6-0.3s4.2,5,4.2,5.2c0,0.3,2.5,4.5,2.5,4.5s1.9,2.6,1.9,2.5c0-0.2,0.4,2.5,0.4,2.7
		c-0.1,0.2,1.1,3.1,1.1,3.1l3.6,3.2l0.8,2.3l3.3,3.6l0.6,2.3l-2.2-2c0,0-0.7,1.1-0.4,1.3c0.2,0.2,2.5,2.5,2.5,2.5l1.1,3.2l0.8,3
		l1.2,1l3.5-0.7l0.6-1.4h3.5l1.5-1.1l1.9-0.3c0,0,1.5-1.4,1.6-1.5c0.1-0.1,5.7-2.5,5.7-2.5s0.1-1.8,0.4-1.8c0.3,0,5.9-1.8,5.9-1.8
		l0.6-2.1l2-0.1l0.6-1.4l2-1.2l0.2-3.2l1.5,0.4l0.4-1.1l-0.5-0.7l2.2-3.2l0.1-1.1l-2.1-2l-1-1.1c0,0-3.4-0.4-3.5-0.6
		c-0.1-0.3-1.4-3.3-1.4-3.3c0-0.9,0.1-2.6-0.1-2.5c-0.2,0.1-1.3,1.3-1.3,1.3l-3.9,3.6l-3.4,0.9c0,0-1.1-0.3-1.2-0.5
		c-0.1-0.2-0.2-3.1-0.2-3.1s-1.5-1.7-1.5-1.9c-0.1-0.3-1.1,2.2-1.1,2.2s-1.6-2.2-1.5-2.3c0.2-0.1-0.8-2.2-0.8-2.2l-3.3-3.8l-0.2-2
		c0,0,1.6-1.7,1.8-1.8c0.2-0.1,2.5-0.4,2.8,0.4c0.3,0.8,2.1,3.6,2.1,4c0,0.4,2.9,2.9,3.2,2.8c0.3-0.1,1.4,0.6,1.8,0.8
		c0.4,0.3,1.1,0.7,1.4,1c0.3,0.3,1.1,0.1,1.1,0.1l2.1-0.3c0,0,1.7-1.6,1.8-1.3c0.1,0.3,2,0.4,1.8,0.9c-0.3,0.4,0.1,1.7,0.2,2.1
		c0.2,0.4,8.7,1.7,8.7,1.7l3.9,0.5c0,0,4.1-0.4,4.4-0.4c0.2,0,2.9,0.3,3.2,0.2c0.2-0.1,4,4.1,4,4.1l3.5,1.8l0.8-0.1l-2,0.9
		c0,0,0.7,1.6,0.7,1.8c0,0.2,3.5,2.7,3.5,2.7s1.3-0.8,1.4-0.8c0.2,0,1.1-0.3,1.1-0.8c0.1-0.4-0.2-1.7,0.1-1.8
		c0.3-0.1,0.8-0.5,0.8,0.1c0.1,0.6,0.8,6,0.7,6c-0.1,0.1,1.1,4.1,1.1,4.3c0,0.2,1.6,5.1,1.6,5.3c0.1,0.2,2.6,5.7,2.8,5.9
		c0.2,0.2,2.7,6.7,2.7,6.7s1.5,2.7,1.4,3.2c-0.1,0.4,0.5,2.6,0.9,2.8c0.4,0.3,2.1,0.9,2.1,0.9s0.9-0.8,1-1.1c0.1-0.2,0.8-1.4,1-1.8
		c0.3-0.4,1.4-0.5,1.5-0.3c0.1,0.3,1.4,0.9,1.4,0.9l-0.1,3.1c0,0,0.3,2,0.4,2.8c0.2,0.8,1.8,1.4,1.8,1.4l1.9-1.7l0.8-2.9l-1.9-2.8
		c0,0-1.4-1.6-1.6-1.8c-0.2-0.2-1.4-0.4-1.4-0.4s0.1,0.6,0.3,0.9c0.1,0.3-0.3,0.3-0.3,0.3l-1.4-0.6l0.3-1.7c0,0,1.1-0.2,1.3-0.2
		c0.2,0-0.1-2.5-0.1-2.5s0.4-4.5,0.5-4.6c0.1-0.1-0.2-4.5-0.7-4.7c-0.5-0.2,0-1.6,0.3-1.7c0.2-0.1,2.7-0.9,2.7-0.9l1.4-2.7
		c0,0,2.5-1.7,2.7-1.8c0.2-0.1,3-3.1,3-3.5c0-0.4,0.3-1.3,1.1-1.5c0.8-0.1,2.1-1.1,2.1-1.1v-2.1c0,0,0.2-1,0.8-1.3
		c0.6-0.3,2-0.4,2-0.4s0.3,0.8,0.1,0.9c-0.2,0.1,3.2-0.9,3.2-0.9s1.5,0,1.8-0.1c0.3-0.1,1-1.2,1-1.2s-0.3-1,0.1-0.8
		c0.4,0.3,1.5,1.4,1.4,1.6c-0.1,0.2,0.6,1.4,0.4,1.9c-0.2,0.5,2.9,3.9,2.9,3.9s1.5-0.7,1.4-0.2c-0.1,0.5-0.4,2.1-0.4,2.1
		s0.9,0.6,1.3,0.7c0.4,0.1,1.4,2.1,1.4,2.1s-0.3,1.9-0.3,2.1c0,0.3,0.1,2.1,0.1,2.4c-0.1,0.3,2.6,0.9,2.6,0.9s2.1-1.7,2.2-1.9l0,0
		c0.1-0.2,1.9-1.1,1.9-1.5c0.1-0.4,1.3,4.1,1.3,4.1l0.9,3.1c0,0,0.7,2.3,0.9,2.7c0.3,0.4,0.6,3.3,0.6,3.6c0,0.2,0.8,1.9,0.4,2.1
		c-0.4,0.2-1,0.1-0.9,0.3c0.1,0.2,0.4,1.6,0.4,1.9c0,0.2-0.2,1.9-0.3,2.3c-0.1,0.3-0.2,1.1-0.2,1.5c0,0.4,0.2,1.1,0.2,1.3
		c0,0.2,0.2,0.5,0.2,0.5s0.3,0.1,0.4-0.2c0.1-0.3,1.1-0.4,1.2-0.3c0.1,0.1,1.6,1.8,1.7,2.3c0.1,0.5,1.7,3,1.9,3.2
		c0.2,0.3,1,1.1,0.5,1.8c-0.5,0.7-0.5,0.8-0.4,1.2c0.1,0.4,0.3,1.8,0.9,2.5c0.6,0.8,2,2.2,2,2.2s1.6,1.1,1.9,1.5
		c0.2,0.3,2.1,0.5,2.3,1.3c0.2,0.8,0.7,1.5,0.7,1.5s1.4,0.4,1.4,0.6c0-0.2,0-2.4-0.2-2.7c-0.2-0.3-1.7-3.4-1.9-3.6
		c-0.2-0.2-0.5-0.6-0.3-1.4c0.2-0.8-0.1-3-0.1-3l-3-3.5c0,0-2.6-2.5-2.6-2.4c-0.1,0.1-2-0.8-1.9-1.5c0.1-0.8-0.2-2.6-0.8-3.1
		c-0.6-0.4-1.1-1.1-1.5-1.4c-0.4-0.3-0.1-2.6,0-3c0.1-0.3,1.1-3.1,1.1-3.3c-0.1-0.2,0.2-2.8,0.2-2.8s0.8-1.1,1-0.7
		c0.2,0.4,1.1,0,0.8,1.1c-0.2,1.1-0.1,1.8-0.1,1.8l2.3-0.4l1.6,1.6l1.1,1.5l1.4,0.9c0,0,0.4,1.7,0.6,1.8c0.2,0.1,1.1-0.4,1.1-0.4
		l1.4,1c0,0-0.8,1.5-0.6,1.9c0.2,0.4,0.4,1.7,0.4,1.7l1.4-1.1l1.8-1.3l0.9-1.3l0.3-0.9l2.5-1.1l2.4-2.2l-0.1-4.7l-0.8-2.9l-2.1-3
		l-4.2-4.2l-1.6-2c0,0-1.1-1.4-1.1-1.8c0.1-0.4,0.3-2.4,0.3-2.4l1.1-1.1l2.2-2.2c0,0,1.5-1,1.8-0.8c0.2,0.3,2.3,0.2,2.3,0.4
		c0.1,0.2,0.3,0.1,0.2,0.5c-0.1,0.4,0.1,2.1,0.2,2.3c0.2,0.2,0.6,0.4,0.8,0.4c0.2,0.1,0.8-0.2,0.9-0.6c0.1-0.4-0.1-1.7,0-2
		c0.1-0.3,0.2-0.3,0.4-0.4c0.2-0.1,1.1,0,1.1,0l1-1l1.8,0.6l1.9-1.6c0,0,1-0.2,1.1-0.1c0.1,0.1,1.8-1.3,1.8-1.3l1.7-0.4l1.5-0.6
		c0,0,0.6-1.4,0.6-1.3c0,0.2,3.7-3.6,3.7-3.6l1.2-3l1.4-4.2l0.9-5.2l0.1-1.5c0,0-1.4,1.1-1.6,1.2c-0.2,0.1-1.3-0.2-1.3-0.2l0.9-1.6
		c0,0,0.5-1.1,0.3-1.2c-0.3-0.1-1.5-0.4-1.5-0.4s0.5-1.2,0.6-1.3c-0.1,0-2.2-2.1-2.2-2.1s-2.8-4-2.9-3.7c-0.1,0.3-2.3-1.5-2.5-1.5
		c-0.2,0-0.3,0.1-0.4-0.3c-0.1-0.4,1.9-3,2-3.2c0.1-0.2,1.8-2.1,2.1-2.1c0.3,0.1,1.4,0.1,1.4,0.1s-0.3-1.3-0.4-1.3
		c-0.2-0.1-4.5-0.4-4.5-0.4s-1.7,1-1.8,1.3c-0.1,0.3-1.4,0.1-1.4,0.1l-0.2-1.4l-1.7-0.8l-1.9-0.7l0.1-1.3c0,0,1.2-0.4,1.4-0.6
		c0.2-0.1,1.7-0.9,1.8-1.5c0.1-0.6,1.1-1.6,1.3-1.8c0.1-0.2,0.9-0.9,1.1-0.8c0.2,0.1,1.4,1,1.3,1.1c-0.1,0.1-0.9,1.4-0.8,1.8
		c0.2,0.4,1.1,1.5,1,1.7c-0.1,0.2-0.5,0.9-0.5,0.9l0.9-0.1c0,0,1.2-0.9,1.1-1.1c-0.1-0.1,0.9-1.2,1.1-1.2c0.2,0,2.3-0.4,2.3-0.3
		c0.1,0.2,2.1,0.7,2.1,0.7l0.4,3.8c0,0,5,1.2,5,1.5c0,0.3-0.6,0.8-0.6,0.8s-0.1,1,0.2,1.1c0.2,0.1,1.1,0.8,1.3,1.1
		c0.2,0.3,0.6,2,0.6,2s-0.7,1.5-0.6,1.7c0.1,0.2,1.4,1.3,1.4,1.3l3.6-1.4c0,0,1.9-1.5,1.9-1.7c0-0.2-2.1-5.2-2.1-5.2l-4.8-3.3
		l-2.1-1.7l2.9-2.8l-0.3-2.5c0,0,0.6-2.4,0.8-2.4c0.1,0,1.9-1.3,1.9-1.3l2,1.4l3-1.9l1.7-6.1l0.1-7.9l-2.7-4.8c0,0-1.3-3-1.5-3
		c-0.2,0-2-2.8-2-2.8l-4.2-1.9l-1.8-0.1l-1.1,1.9l-1.2-1.4l-1.6-2.9l0.2,1.8c0,0,0.3,1.1,0.2,1.4c0,0.3-1.3-1.6-1.3-1.6
		s-2-0.4-2.1-0.4c-0.1,0-1.1-0.6-1.1-0.6s3-3.5,2.7-3.3c-0.2,0.1,0.5-4.4,0.5-4.4s1.1-2.1,1.1-2c0.1,0.1,4.1-0.4,4.1-0.4
		s7.5-0.1,7.4,0c-0.1,0.1,3.7-0.2,3.7-0.2s0.1,1.1,0.4,1.2c0.3,0.1,3.3-0.1,3.3-0.1l2.2-0.5l1.1-0.1c0,0-1.3-1.3-1.5-1.3
		c-0.2,0-1.4-0.6-1.6-0.6c-0.1-0.1,0.9-2.5,0.9-2.8c-0.1-0.4-0.2-1.7,0.3-1.6c0.5,0.1,3.9,0.1,3.9,0.1s1.4,1.3,1.4,1.7
		c0,0.4,2.2,1.7,2.2,1.7s1.2-1.3,1.3-1.6c0.1-0.2,0.7-0.9,1-1c0.1,0,0.1,0.1,0.1,0c0-0.1,0-0.1-0.1,0c-0.3-0.3-1.3-1.6-1.3-1.6
		s1.1-1.2,1.6-0.6c0.6,0.6,1.8,3.3,1.8,3.3s-1.1,2.8-1.1,3.1c0,0.2-0.4,2.8-0.4,3c0,0.2-1.3,1.3-1.3,1.3s-0.6,0-0.6,0.3
		c0,0.3,0.9,2,0.9,2s0.3,2,0.5,2.1c0.2,0.1,6.5,5.6,6.5,5.6l4.1,4l2.7,2.2l0.8-0.2c0,0,0.6-3.1,0.4-3c-0.3,0.1-1.3-0.9-1.1-1.1
		c0.1-0.2,0.4-1.1,0.7-1c0.3,0.1,1.3,0.2,1.3,0.2l-1.9-2.4l0.6-1.3l1.5,0.4l-2-2.1l-1-2c0,0,1.1,0.2,1.1,0.4
		c0.1,0.2,1.2-0.8,0.8-0.9c-0.4-0.1-2.6-0.9-2.6-1.1c0-0.2-1.3-0.5-1.4-0.8c-0.1-0.2,0.3-1.3,0.1-1.3c-0.2,0-2.1-0.9-2.1-0.9
		l-1.3,0.2l-0.7-1.4l0.4-1.1c0,0-1.2-1.7-1.3-1.8c0.1,0.1,2.7-0.9,2.9-1c0,0,1.2-0.1,1.3,0.4c0.1,0.5,0.7,1,0.7,1l1.3-1.3
		c0,0,0.9-0.8,1.3-0.6c0.4,0.2,2.2,0.6,2.5,0.8c0.2,0.2,1.4,0.6,1.5,0.8c0-0.3,0-1.1,0-1.1l0.1-0.7l1.8-2.4c0,0,0.7-1,1.3-1.1
		c0.6-0.1,1.9-1.3,2.2-1.1c0.3,0.2,2.3,0.1,2.6,0.7c0.2,0.6,1.4-0.2,1.4-0.2s-1.1-1.3-1.1-1.2c-0.1,0.1-3.5-1.4-3.7-1.3
		c-0.2,0.1-2.5-1.4-2.5-1.4s-1.2-0.4-1.3-0.4c-0.1,0,0.9-0.5,1.3-0.6c0.4-0.1,1.3-1.3,1.3-1.3s-0.4-0.8-0.7-1.1
		c-0.3-0.2,1.4-0.1,2,0.2c0.6,0.3,3.4,0.4,3.3,0.6c-0.1,0.2,1.9,0.2,1.8,0.7c-0.1,0.5,0.7,0.6,0.9,0.9c0.3,0.3,2.6,0.6,2.8,0.7
		c0.1,0.1,2.5-0.2,2.5,0.2c0,0.4,0.8-0.1,0.8-0.1s-0.4-1.8-0.8-1.7c-0.4,0.1-1.3-0.5-0.7-0.6c0.6-0.1,1.6-0.8,1.3-0.9
		c-0.3-0.1-0.8-0.8-1.6-1.1c-0.8-0.3-3.8-1-4.1-0.9c-0.3,0.1-5-1-5.3-1c-0.3,0-2-0.4-2-0.4l-16.1-4.3c0,0-10-1.1-10-1.3
		c0.1-0.2-4.2-0.5-5.4-0.7h-0.3L588.9,2.9z M334.8,34.7l0.4-1.7c0,0,1.9,0.3,2,0.6c0.1,0.2,0.5-0.6,1-0.1c0.5,0.4,1.1,0.4,1.2,0.8
		c0.1,0.4,0.4,0.8,0.5,0.6c0.1-0.3,0.1-1.1,0.1-1.1s-0.6-0.3-0.9-0.5c-0.3-0.2-0.3-0.8,0.1-0.9c0.3-0.2,1.2-0.7,1.4-0.5
		c0.3,0.2,1.4-0.3,1.4-0.3s0.2-0.4,0.3-0.6c0.1-0.2,0.8-1.9,0.8-1.9s-0.4-0.2-0.6-0.8c-0.1-0.6,0.7-2.2,0.9-2.3
		c0.2-0.1,2.6-1.5,2.6-1.5s0.9-1,0.6-1.3c-0.4-0.3-3.2-1.7-3.2-2c0-0.3-0.3-2-0.1-2.6c0.2-0.6,1.3-1.8,1.5-2.1
		c0.2-0.2,1.6-1.9,1.8-1.9c0.3,0.1,1.2-0.1,1.4-0.2c0.3-0.1,2.5-1.1,2.1-1.2c-0.4-0.1,0.1-1.2-0.1-1.1c-0.2,0.1,0.2-1.4,0.6-1.6
		c0.4-0.1,1.2-0.7,1.4-0.7c0.2,0,1.7,0.1,2.1,0.1c0.4,0.1,1.7-0.6,1.9,0c0.2,0.6,0.7,0.7,0.3,0.9c-0.4,0.2-1.4,1.1-2.1,1.6
		c-0.6,0.6-2.5,1.8-2.8,1.9c-0.2,0.1-0.4,0.2-0.9,0.5c-0.5,0.3-0.5-0.4-0.6,0.8c-0.1,1.2-0.3,2.5-0.1,3c0.3,0.4,0.4,1.1,0.2,1.4
		c-0.2,0.3-0.1,0.5,0,1.1c0.1,0.6,0.8,0.8,0.9,1.1c0.1,0.3,1.1,0.8,1.1,0.8c0.5-0.1,1.1-0.1,1.2,0.1c0.1,0.3,0.4,0.1,0.4,0.1
		l1.1-0.3c0,0,1.1-0.6,1.5-0.6c0.4,0.1,0.9-0.1,1.3,0c0.4,0.1,2.3-0.5,2.6-0.4c0.2,0.1,2-0.7,2.1-0.4c0.1,0.3,1.1,0.2,1.1,0.2
		l0.8,0.6c0,0.4-0.8,1.3-0.9,1.4c-0.2,0.1-0.8,0.6-1.2,0.5c-0.4-0.1-0.6,0.1-1.1-0.1c-0.5-0.2-1.4-0.4-1.7-0.4
		c-0.3,0-3.2,0.7-3.2,0.7l-1.5,0.4l-0.3,0.9l0.2,0.2l1.5,0.9c0,0.3,0.6,0.1,0.5,0.9c-0.1,0.8-0.2,1.1-0.4,1.4
		c-0.2,0.4-0.9,1.1-1.1,0.6c-0.2-0.4-1.1-1.3-1.4-1.4c-0.2-0.2-1-0.1-1.5-0.1c-0.4,0-1.3,0.6-1.3,1.3c0,0.7-0.4,1.6-0.3,2.3
		c0.2,0.7,1,1.6,0.6,2c-0.4,0.4-1.3,0.8-1.6,0.9c-0.4,0.2-1.3,0.8-1.6,0.9c-0.3,0.1-1.3,0.5-1.5,0.1c-0.2-0.4-0.6-1.1-0.6-1.1
		s-0.3-0.6-0.4-0.4c-0.1,0.2-0.8,0.3-0.8,0.3l-1.6,0.6c0,0-0.9,0.6-1.1,0.8c-0.2,0.1-1.1,0.1-1.5,0.3c-0.4,0.2-1.5,1.1-1.8,0.7
		c-0.3-0.4-0.5,0.3-0.9-0.4c-0.4-0.7-0.2-1.4-0.7-1.3c-0.4,0.1-1.4,0.4-1.6,0.6c-0.1,0.3-0.3,0.3-0.5,0.5c-0.3,0.2-2.1,0.4-2.1,0.4
		v-0.1h0L334.8,34.7z M384.9,83.1c-0.5,1.2-0.5,2.8-1.1,4.1c-0.7,1.2-0.9,1.9-1.4,2.6c-0.5,0.7-0.5,1.8-1.2,2.3
		c-0.8,0.5-1.9,1.1-2.5,0.7c-0.7-0.5-3.3-0.4-3.6-0.3c-0.3,0.1-3.5-0.1-3.9,0.6c-0.4,0.7-2.8,0.2-3.2,0c-0.4-0.2-5-2.1-5.4-2.2
		c-0.4-0.1-2.7-1.1-3.1-1.4c-0.4-0.3-2.7-0.6-2.8-0.9c-0.1-0.3,0.2-0.7-0.2-0.6c-0.4,0.1-3.1,0.9-3.5,1.2c-0.4,0.3-1.2,1-1.2,1
		s-1.1,1.1-1,2c0.1,0.9,1.1,1.5,0.8,2c-0.4,0.5-1.7,1-1.7,1s-1.4-1.3-1.9-1.5c-0.5-0.2-4.9-0.8-4.9-0.8l-1.8-2.1c0,0-2.8-1.9-3.1-2
		c-0.3-0.1-3.4,0-3.9-0.4c-0.5-0.4-2-2.4-2.7-2.3c-0.8,0.1-0.5-1.1-0.2-1.3c0.3-0.2,1.1-1.8,1-2.1c-0.1-0.3,0.5-1.9-0.5-2.4
		c-0.9-0.5-0.3-2.1-0.3-2.1s0.9-0.2,0.6-0.2c-0.4,0-1.8,0.1-2.2-0.4c-0.4-0.5-0.5-0.7-0.8-0.5c-0.4,0.2-2.7,0.6-3,0.5
		c-0.3-0.1-2.5,0.2-2.9,0.2c-0.4,0,0.1,0.1-0.4,0c-0.5-0.1-2.4,0.8-2.5,1.1c-0.1,0.4-2-0.1-2.3,0c-0.3,0.1-3,0.1-3,0.1l-4.5,0.8
		c0,0-3,1.5-3.1,2c-0.1,0.5-1,1.2-1.3,1.4c-0.3,0.2-2,0-2.1-0.3c-0.1-0.3-3.1,0.1-3.1,0.1s-1.2-0.7-1.6-0.4
		c-0.4,0.3-0.4-1.2-0.4-1.2l0.5-1.1l1.7-1.1l4.1-0.8l2-1.3l1.2-0.5l0.8-2c0,0,1.4-0.3,1.3-0.6c-0.1-0.3-0.5-1.6-0.5-1.6l2.7-4.2
		l3.9-1.9l0.7-1.3c0,0-0.4-1.7-0.1-2c0.3-0.3,2.8-0.9,2.8-0.9l3.2,1c0,0,1.7-1.1,2.1-1.3c0.4-0.2,2.2-1.2,2.2-1.2s0.2-0.8,0.6-0.8
		c0.4,0.1,2-0.3,2.2,0.5c0.2,0.8,1.6,3.1,1.6,3.1l2.2,2.3l2.1,1.6l2.6,0.9c0,0,1.5,1.3,1.8,1.4c0.3,0.1,1.7,1.7,1.7,1.7l0.8,1.3
		c0,0-0.5,1-0.8,1.5c-0.4,0.5-1.5,1.7-1.8,1.6c-0.3-0.1-2.5-0.5-2.5-0.5l-2.4,0.3c0,0-0.4,0.6,0.3,1c0.7,0.5,1.4,0.4,2.1,0.8
		c0.7,0.4,2.4,1.1,2.4,1.1s1.1,0.2,1.1,0.5c0,0.3,0.4-0.8,0.3-1.4c-0.1-0.7-0.2-1.5,0.5-1.7c0.7-0.2,1.7,0,1.7-0.3
		c0-0.3,0.3-0.7,0.3-0.7l0.8-1l-0.1-0.7l0.9-0.7c0,0-0.5-0.6-0.9-1c-0.4-0.5-0.8-0.8-0.5-1.2c0.3-0.5,1.2-1.1,1.7-0.8
		c0.5,0.4,1.9,0.6,1.8,1c-0.1,0.5,0,1.1,0.2,0.8c0.2-0.4,0.1-1.9,0.1-1.9s-0.8-1-1.4-1.1c-0.7-0.1-2.4-0.9-2.8-1.1
		c-0.5-0.2-1.3-0.7-1.3-0.7s0.4-1-0.2-0.9c-0.6,0.1-2.3-0.2-2.3-0.5c0-0.3-1.7-1.6-1.8-1.9c-0.1-0.3-1.6-2.4-1.6-2.4
		s-0.9-0.8-0.9-1.1c-0.1-0.3-0.2-0.8-0.4-1.5c-0.2-0.8,1.9-2.6,1.8-2.4c-0.1,0.3,0.5,0.7,0.9,1.5c0.4,0.9,1.9,2.3,2.1,2.8
		c0.2,0.6,2.3,2.2,2.7,2.4c0.5,0.2,0.8,0.8,1.7,1.1c0.9,0.4,0.9,0.6,2.1,1.1c1.2,0.6,1.4,0.8,1.6,1c0.2,0.3,0.9,0.2,1.2,0.7
		c0.3,0.5,0.7,0.6,0.7,1c0,0.5,0.4,0.5,0.2,1.4c-0.2,0.9-0.5,1.2-0.4,1.4c0.1,0.2,1.8,3.7,2.5,3.7c0.7,0,2.6,0.8,2.4,1.9
		c-0.3,1.1,1.2,2.6,1.2,2.6s1.3,0.1,2.1,0.2c0-0.7-0.1-1.7,0.6-2.1c0.8-0.5,2.1-0.9,1.9-1.4c-0.2-0.5-0.4-1.3-1.1-1.9
		c-0.7-0.6-1.5-0.9-1.7-1.8c-0.2-0.9-0.5-2.2,0.4-1.8c0.8,0.4,1.6,2.2,2,0.9c0.4-1.2,1.3-2.1,2-1.8c0.7,0.3,1.9,0.8,1.8,1.1
		c-0.1,0.4,0.8,3.4,0.8,3.4s0.4,0.3,0.6,1.7c0.2,1.4,1.4,1.8,1.2,2.3c-0.2,0.5-0.8,0.8,0.8,0.9c1.5,0.2,2.9,0.5,2.9,0.8
		c0,0.4,1.2,0.6,1.4,0.9c0.2,0.3,1.3,0.8,1.5,0.3c0.2-0.6,0.6-1.7,0.9-1.5c0.3,0.2,2.6,0.2,2.8,1c0.2,0.7,1.8,0.7,1.8,0.9
		c0,0.2,1.4-0.5,1.4-0.5s2-1.5,2.5-1.2c0.6,0.3,2.2-1,2,0.2C384.2,80.8,385.4,81.9,384.9,83.1L384.9,83.1z M394.4,66.5L394.4,66.5
		c-0.3,0.3-2.1,2.1-2.1,2.1l-3.6-0.5h-2.5l-2.1-0.8c0,0-1.4-0.5-1.7-0.8c-0.3-0.3-2.1-0.9-2.1-0.9l-3.8,0.9l-2.9,0.9l-1,0.9
		l-3.5-0.8l-2.1-1l-1.1-1.2h1l-0.4-1.5l0.2-1l0.9-0.6l0.7-2.7l1.1-0.5l0.3-1.4c0,0,0.9-0.9,1.2-1.1c0.3-0.3,1.2-1.6,1.2-1.6l2.3,0.9
		c0,0,2.4,0.3,2,0.4c-0.4,0.1-1.5,1.4-1.5,1.4s0.9,0.5,1.2,0.8c0.4,0.3,1.2,0.8,1,1.3c-0.2,0.6,1.4,0.5,1.4,0.5l0.6-0.9l2.6-0.7
		l0.9-0.5l-1.5-0.5c0,0-1.3-0.5-1.1-0.8c0.2-0.3,1.4-2.2,1.4-2.2s3.1-0.9,3.4-0.9c0.3,0,2.2-0.4,2.2-0.4s-1.5,1.5-1.7,1.8
		c-0.2,0.3,0.1,1.2-0.4,1.6c-0.5,0.4-1.1,0.8-1.4,0.9c-0.3,0.1-0.1,1,0.2,1.1c0.3,0.1,1.2,0.5,1.2,0.5l4.2,2.2l2.5,2.5l2,1.6
		C393.8,65.4,394.7,66.2,394.4,66.5z M418.4,79l-2.4,0.3c0,0-2.1-0.9-2.2-1.2c-0.1-0.4-0.6-1.2-0.9-1c-0.3,0.2-1.2,0.3-1.5,0.2
		c-0.3-0.1-1.3-0.9-1.3-1.3c0-0.4-0.3-1.2,0.2-1.6c0.5-0.4,1.4-1,1.2-1.3c-0.2-0.3-0.3-1.5-0.3-1.7c0-0.2,0-0.4,0.6-0.5
		c0.6-0.1,0.6-0.1,0.6-0.1s0.2-0.6-0.1-0.8c-0.3-0.3-2-1.5-2.2-1.8c-0.2-0.3-2.3-2.3-2.5-2.6c-0.3-0.3-1.5-1.1-1.5-1.1l-0.7-1.4
		l0.6-1.8l-1.7-0.4l-0.4-1.2v-0.3l1.8-2.1c0,0,1.2-0.7,1.5-0.5c0.3,0.2,0.9-0.6,1-0.8c0.1-0.3,1.9-1.5,2.3-1.7c0.4-0.2,1-1,1.4-0.6
		c0.4,0.5,2.7,1.2,2.7,1.2s0.9,0.2,0.8,0.6c-0.1,0.4-0.8,2.8-0.8,2.8s-1.7-0.5-1.9-0.4c-0.2,0.1-1.5,0.6-1.2,1.3
		c0.3,0.8-1,0.3-0.9,0.7c0.1,0.4,0.3,0.9,0.6,1.1c0.3,0.2,1.9,1,2.1,1.6c0.2,0.6,2.8,2.3,2.8,2.3s0.3,0.2,0.2,0.6
		c-0.1,0.4-0.3,2.4,0,2.4s0.9-0.1,0.9-0.1s0.9-1.8,1.1-1.6c0.3,0.2,1.4,1,1.7,1.7c0.3,0.7,0.8,1.3,0.6,1.5c-0.3,0.2-1.6,0.1-2,0.1
		c-0.4,0-1-0.5-1.2-0.3c-0.2,0.2-0.6,0.7-0.3,1.2c0.3,0.6,0.9,1.4,1.1,1.6c0.3,0.2,0.6,0.1,1.4,0.9c0.8,0.8,1.1,1.1,0.8,2
		c-0.3,0.8-0.1,1.6,0,1.9c0.1,0.3,0.3,0.9,0.5,1.2c0.2,0.3,0.2,0.7,0.2,0.7S418.4,79,418.4,79z"/>
</g>
<g>
	<path class="st2" d="M646.4,16c-60.2,0-109,48.8-109,109c0,21,6,40.7,16.3,57.4l-0.5-0.2l-13.6,49.6l52.5-12.3
		c16,9.2,34.5,14.5,54.3,14.5c60.2,0,109-48.8,109-109S706.6,16,646.4,16z"/>
	<path class="st3" d="M669.5,231.5c49.1-10.6,85.9-54.3,85.9-106.5c0-2.5-0.1-4.9-0.2-7.3L717.5,80l-55.6,15.3l0,0l-100.6,27.9
		L669.5,231.5z"/>
	<g id="layer1">
		<path id="path4718" class="st4" d="M561.2,123.2l156.5-43.3l-48.8,90.3l-45-30.1L717.5,80L618.7,139l-6.1,30.4l-11.9-33.5
			L717.5,80l-118.9,53.6L561.2,123.2z"/>
		<path id="path4720" class="st4" d="M615.7,170.1l20.1-18.3l-12.9-9.5L615.7,170.1z"/>
	</g>
</g>
<rect x="21.4" y="42.8" class="st5" width="502.5" height="82.3"/>
<text transform="matrix(1 0 0 1 266.766 51.0875)"><tspan x="0" y="0" class="st6 st7">^</tspan><tspan x="-39.9" y="12" class="st6 st7">KEEP CALM AND</tspan><tspan x="-245.4" y="45" class="st6 st8">SEND ME YOUR POSITION</tspan><tspan x="-161.9" y="57" class="st6 st7">ALLOW YOUR CUSTOMERS TO SEND THEIR POSITION EASILY!</tspan></text>
</svg>
