<?xml version="1.0" encoding="utf-8"?>
<!-- Generator: Adobe Illustrator 21.0.0, SVG Export Plug-In . SVG Version: 6.00 Build 0)  -->
<svg version="1.1" id="Livello_1" xmlns="http://www.w3.org/2000/svg" xmlns:xlink="http://www.w3.org/1999/xlink" x="0px" y="0px"
	 viewBox="0 0 256 256" style="enable-background:new 0 0 256 256;" xml:space="preserve">
<style type="text/css">
	.st0{fill:#3EBCA6;}
	.st1{fill:#006B81;}
	.st2{fill:#FFFFFF;}
</style>
<g>
	<path class="st0" d="M128,0.7C57.7,0.7,0.7,57.7,0.7,128c0,24.6,7,47.6,19.1,67l-0.6-0.2L3.2,252.8l61.3-14.3
		c18.7,10.8,40.3,16.9,63.4,16.9c70.3,0,127.3-57,127.3-127.3S198.3,0.7,128,0.7z"/>
	<path class="st1" d="M155,252.5c57.4-12.4,100.4-63.4,100.4-124.5c0-2.9-0.1-5.7-0.3-8.6L211,75.4l-65,17.9l0,0L28.4,125.8
		L155,252.5z"/>
	<g id="layer1">
		<path id="path4718" class="st2" d="M28.4,125.8l182.9-50.6l-57,105.6l-52.6-35.2L211,75.4l-115.4,69l-7.1,35.5l-14-39.2L211,75.4
			L72,138L28.4,125.8z"/>
		<path id="path4720" class="st2" d="M92,180.7l23.5-21.4l-15.1-11.1L92,180.7z"/>
	</g>
</g>
</svg>
